<?xml version="1.0" encoding="iso-8859-1"?>
<!-- Generator: Adobe Illustrator 18.1.1, SVG Export Plug-In . SVG Version: 6.00 Build 0)  -->
<svg version="1.1" id="Capa_1" xmlns="http://www.w3.org/2000/svg" xmlns:xlink="http://www.w3.org/1999/xlink" x="0px" y="0px"
	 viewBox="0 0 26.99 26.99" style="enable-background:new 0 0 26.99 26.99;" xml:space="preserve">
<g>
	<path d="M24.844,0.616H2.146C0.96,0.616,0,1.577,0,2.761v21.467c0,1.184,0.96,2.145,2.146,2.145h22.698
		c1.182,0,2.146-0.961,2.146-2.145V2.761C26.99,1.577,26.025,0.616,24.844,0.616z M6.168,8.78c-1.533,0-2.779-1.244-2.779-2.779
		c0-1.531,1.246-2.777,2.779-2.777c1.534,0,2.777,1.246,2.777,2.777C8.945,7.536,7.702,8.78,6.168,8.78z M20.949,16.272
		c-1.535,0-2.778-1.242-2.778-2.777c0-1.533,1.243-2.777,2.778-2.777c1.533,0,2.779,1.244,2.779,2.777
		C23.729,15.03,22.482,16.272,20.949,16.272z M6.208,16.272c-1.534,0-2.777-1.242-2.777-2.777c0-1.533,1.243-2.777,2.777-2.777
		s2.777,1.244,2.777,2.777C8.985,15.03,7.742,16.272,6.208,16.272z M21.165,23.62c-1.532,0-2.778-1.244-2.778-2.777
		s1.246-2.777,2.778-2.777c1.534,0,2.778,1.244,2.778,2.777S22.699,23.62,21.165,23.62z M21.006,8.828
		c-1.533,0-2.777-1.244-2.777-2.775c0-1.533,1.244-2.777,2.777-2.777s2.777,1.244,2.777,2.777
		C23.783,7.583,22.539,8.828,21.006,8.828z M6.235,23.557c-1.533,0-2.777-1.244-2.777-2.777c0-1.535,1.244-2.777,2.777-2.777
		c1.534,0,2.779,1.242,2.779,2.777C9.015,22.313,7.77,23.557,6.235,23.557z"/>
	<g>
	</g>
	<g>
	</g>
	<g>
	</g>
	<g>
	</g>
	<g>
	</g>
	<g>
	</g>
	<g>
	</g>
	<g>
	</g>
	<g>
	</g>
	<g>
	</g>
	<g>
	</g>
	<g>
	</g>
	<g>
	</g>
	<g>
	</g>
	<g>
	</g>
</g>
<g>
</g>
<g>
</g>
<g>
</g>
<g>
</g>
<g>
</g>
<g>
</g>
<g>
</g>
<g>
</g>
<g>
</g>
<g>
</g>
<g>
</g>
<g>
</g>
<g>
</g>
<g>
</g>
<g>
</g>
</svg>
