<?xml version="1.0" encoding="iso-8859-1"?>
<!-- Generator: Adobe Illustrator 17.0.2, SVG Export Plug-In . SVG Version: 6.00 Build 0)  -->
<!DOCTYPE svg PUBLIC "-//W3C//DTD SVG 1.1//EN" "http://www.w3.org/Graphics/SVG/1.1/DTD/svg11.dtd">
<svg version="1.1" id="Capa_1" xmlns="http://www.w3.org/2000/svg" xmlns:xlink="http://www.w3.org/1999/xlink" x="0px" y="0px"
	 width="100px" height="100px" viewBox="0 0 100 100" style="enable-background:new 0 0 100 100;" xml:space="preserve">
<g>
	<path style="fill:#1D1D1B;" d="M11.432,37.299c17.347,0.033,42.313,0.8,59.655,0.469c-1.868,1.885-3.715,3.792-5.505,5.755
		c-4.722,5.177,2.959,12.902,7.701,7.702c5.24-5.746,10.854-11.115,16.61-16.338c2.716-2.463,1.917-5.724-0.202-7.621
		c-0.365-0.538-0.837-1.04-1.444-1.477c-5.351-3.847-10.48-7.961-15.509-12.219c-5.324-4.51-13.068,3.156-7.701,7.702
		c2.236,1.894,4.502,3.751,6.786,5.584c-17.588,0.367-42.801-0.415-60.392-0.449C4.407,26.393,4.408,37.285,11.432,37.299z"/>
	<path style="fill:#1D1D1B;" d="M86.356,59.083c-17.592,0.034-42.804,0.816-60.392,0.449c2.284-1.833,4.55-3.69,6.786-5.584
		c5.367-4.546-2.378-12.212-7.701-7.702c-5.028,4.258-10.158,8.372-15.509,12.219c-0.607,0.437-1.08,0.939-1.444,1.477
		c-2.119,1.897-2.918,5.158-0.202,7.621c5.757,5.223,11.37,10.592,16.61,16.338c4.742,5.2,12.423-2.525,7.701-7.702
		c-1.79-1.964-3.637-3.87-5.506-5.755c17.343,0.331,42.31-0.436,59.656-0.469C93.38,69.962,93.381,59.07,86.356,59.083z"/>
</g>
</svg>
