<?xml version="1.0" encoding="utf-8"?>
<!-- Generator: Adobe Illustrator 16.0.4, SVG Export Plug-In . SVG Version: 6.00 Build 0)  -->
<!DOCTYPE svg PUBLIC "-//W3C//DTD SVG 1.1//EN" "http://www.w3.org/Graphics/SVG/1.1/DTD/svg11.dtd">
<svg version="1.1" id="Capa_1" xmlns="http://www.w3.org/2000/svg" xmlns:xlink="http://www.w3.org/1999/xlink" x="0px" y="0px"
	 width="512px" height="512px" viewBox="0 0 512 512" enable-background="new 0 0 512 512" xml:space="preserve">
<path d="M224,64v-8c0-13.2-10.8-24-24-24h-80c-13.2,0-24,10.8-24,24v8H0v64h96v8c0,13.2,10.8,24,24,24h80c13.2,0,24-10.8,24-24v-8
	h288V64H224z M128,128V64h64v64H128z M416,216c0-13.2-10.8-24-24-24h-80c-13.2,0-24,10.8-24,24v8H0v64h288v8c0,13.2,10.8,24,24,24
	h80c13.2,0,24-10.8,24-24v-8h96v-64h-96V216z M320,288v-64h64v64H320z M224,376c0-13.2-10.8-24-24-24h-80c-13.2,0-24,10.8-24,24v8H0
	v64h96v8c0,13.2,10.8,24,24,24h80c13.2,0,24-10.8,24-24v-8h288v-64H224V376z M128,448v-64h64v64H128z"/>
</svg>
